<?xml version="1.0" ?>
<svg enable-background="new 0 0 52 52" id="Layer_1" version="1.1" viewBox="0 0 52 52" xml:space="preserve" xmlns="http://www.w3.org/2000/svg" xmlns:xlink="http://www.w3.org/1999/xlink">
  <g fill="#FFFFFF">
    <g>
      <g>
        <g>
          <polygon points="50,46 34.9560547,46 34.9560547,32.5869141 36.9560547,32.5869141 36.9560547,44 48,44 48,16 38.953125,16 38.953125,14 50,14"/>
        </g>
      </g>
      <g>
        <rect height="2" width="4" x="42" y="18"/>
      </g>
      <g>
        <rect height="2" width="4" x="42" y="22"/>
      </g>
      <g>
        <rect height="2" width="4" x="42" y="26"/>
      </g>
      <g>
        <rect height="2" width="2" x="44" y="30"/>
      </g>
      <g>
        <path d="M42.4775391,41.4350586c-1.9892578,0-3.6083984-1.6191406-3.6083984-3.6088867s1.6191406-3.6083984,3.6083984-3.6083984
          c1.9902344,0,3.609375,1.6186523,3.609375,3.6083984S44.4677734,41.4350586,42.4775391,41.4350586z M42.4775391,36.2177734
          c-0.8867188,0-1.6083984,0.7216797-1.6083984,1.6083984c0,0.887207,0.7216797,1.6088867,1.6083984,1.6088867
          c0.8876953,0,1.609375-0.7216797,1.609375-1.6088867C44.0869141,36.9394531,43.3652344,36.2177734,42.4775391,36.2177734z"/>
      </g>
    </g>
    <g>
      <g>
        <path d="M40,33.5654297H2V6h38V33.5654297z M4,31.5654297h34V8H4V31.5654297z"/>
      </g>
    </g>
    <g>
      <path d="M30.3759766,40.8696289H11.6230469l2.2939453-9.3041992h14.1660156L30.3759766,40.8696289z M14.1757813,38.8696289
        h13.6474609l-1.3066406-5.3041992H15.4833984L14.1757813,38.8696289z"/>
    </g>
    <g>
      <rect height="2" width="21.5996094" x="10.2001953" y="38.8696289"/>
    </g>
  </g>
</svg>
